<svg xmlns="http://www.w3.org/2000/svg" width="337.665" height="78.757"><g fill="#fff"><path d="M99.935 28.756V14.825h10.021v2.358h-7.292v3.088h6.784v2.346h-6.784v3.793h7.549v2.346zM112.317 18.663h2.385v1.378a3.814 3.814 0 013.052-1.605 3.2 3.2 0 011.631.4 3.04 3.04 0 011.133 1.207 4.645 4.645 0 011.394-1.207 3.333 3.333 0 011.6-.4 3.455 3.455 0 011.825.453 2.74 2.74 0 011.116 1.324 5.937 5.937 0 01.265 2.092v6.451h-2.593v-5.77a4.4 4.4 0 00-.267-1.938 1.214 1.214 0 00-1.106-.57 1.732 1.732 0 00-1.023.342 1.9 1.9 0 00-.692 1 7.455 7.455 0 00-.211 2.084v4.852h-2.591v-5.531a8.166 8.166 0 00-.136-1.9 1.25 1.25 0 00-.43-.639 1.346 1.346 0 00-.79-.207 1.856 1.856 0 00-1.078.331 1.825 1.825 0 00-.685.961 7.35 7.35 0 00-.208 2.08v4.905h-2.589zM129.225 18.664h2.417v1.483a3.658 3.658 0 011.271-1.237 3.438 3.438 0 011.777-.474 3.683 3.683 0 012.9 1.377 5.694 5.694 0 011.19 3.84 5.872 5.872 0 01-1.2 3.93 3.686 3.686 0 01-2.9 1.4 3.235 3.235 0 01-1.47-.33 5.046 5.046 0 01-1.388-1.142v5.085h-2.597zm2.563 4.875a3.964 3.964 0 00.654 2.513 1.984 1.984 0 001.6.814 1.849 1.849 0 001.5-.746 3.918 3.918 0 00.6-2.448 3.726 3.726 0 00-.618-2.356 1.884 1.884 0 00-1.529-.77 1.959 1.959 0 00-1.577.757 3.43 3.43 0 00-.627 2.236M143.306 28.756h-2.589V18.664h2.4V20.1a4.326 4.326 0 011.111-1.34 1.983 1.983 0 011.12-.323 3.216 3.216 0 011.707.5l-.8 2.326a2.237 2.237 0 00-1.218-.436 1.413 1.413 0 00-.921.309 2.121 2.121 0 00-.591 1.12 16.334 16.334 0 00-.218 3.383zM153.843 25.545l2.583.446a4.37 4.37 0 01-1.574 2.228 4.512 4.512 0 01-2.686.765 4.325 4.325 0 01-3.781-1.72 5.909 5.909 0 01-.969-3.478 5.686 5.686 0 011.273-3.93 4.133 4.133 0 013.217-1.419 4.288 4.288 0 013.448 1.487 6.735 6.735 0 011.208 4.557h-6.491a2.745 2.745 0 00.629 1.848 1.93 1.93 0 001.491.661 1.567 1.567 0 001.026-.343 2.152 2.152 0 00.626-1.1m.146-2.7a2.632 2.632 0 00-.58-1.763 1.834 1.834 0 00-2.747.034 2.505 2.505 0 00-.545 1.729zM157.758 25.877l2.6-.408a1.988 1.988 0 00.673 1.182 2.221 2.221 0 001.419.4 2.511 2.511 0 001.513-.381.856.856 0 00.341-.713.707.707 0 00-.185-.5 1.991 1.991 0 00-.865-.353 13.569 13.569 0 01-3.973-1.3 2.619 2.619 0 01-1.163-2.271 2.836 2.836 0 011.006-2.2 4.586 4.586 0 013.114-.893 5.282 5.282 0 012.987.676 3.455 3.455 0 011.348 1.994l-2.444.465a1.556 1.556 0 00-.594-.9 2.12 2.12 0 00-1.248-.313 2.746 2.746 0 00-1.468.294.635.635 0 00-.292.54.593.593 0 00.255.486 9.583 9.583 0 002.42.752 7.112 7.112 0 012.891 1.186 2.512 2.512 0 01.81 1.988 3.082 3.082 0 01-1.123 2.384 4.874 4.874 0 01-3.33 1 5.327 5.327 0 01-3.164-.835 3.858 3.858 0 01-1.529-2.271M171.108 21.743l-2.351-.437a3.775 3.775 0 011.363-2.167 4.883 4.883 0 012.878-.7 6.019 6.019 0 012.581.424 2.6 2.6 0 011.194 1.073 5.683 5.683 0 01.344 2.388l-.028 3.119a10.89 10.89 0 00.126 1.961 5.831 5.831 0 00.465 1.357h-2.562a10.02 10.02 0 01-.25-.788 4.287 4.287 0 00-.093-.317 4.634 4.634 0 01-1.419 1 3.982 3.982 0 01-1.613.33 3.271 3.271 0 01-2.382-.846 2.851 2.851 0 01-.873-2.138 2.926 2.926 0 01.4-1.525 2.656 2.656 0 011.11-1.027 8.643 8.643 0 012.061-.622 13.8 13.8 0 002.516-.655v-.266a1.4 1.4 0 00-.37-1.1 2.148 2.148 0 00-1.39-.326 1.8 1.8 0 00-1.078.28 1.939 1.939 0 00-.627.983m3.465 2.167a15.771 15.771 0 01-1.575.409 4.668 4.668 0 00-1.411.465 1.126 1.126 0 00-.507.943 1.323 1.323 0 00.406.967 1.4 1.4 0 001.032.407 2.21 2.21 0 001.338-.473 1.673 1.673 0 00.616-.885 5.464 5.464 0 00.1-1.3zM184.934 28.756V14.825h10.021v2.358h-7.293v3.088h6.784v2.346h-6.784v3.793h7.549v2.346zM197.508 14.825h2.591v13.933h-2.591zM208.425 25.545l2.582.446a4.357 4.357 0 01-1.573 2.228 4.5 4.5 0 01-2.685.765 4.324 4.324 0 01-3.78-1.72 5.9 5.9 0 01-.968-3.478 5.685 5.685 0 011.271-3.93 4.13 4.13 0 013.218-1.419 4.288 4.288 0 013.448 1.487 6.735 6.735 0 011.208 4.557h-6.49a2.755 2.755 0 00.626 1.848 1.937 1.937 0 001.493.661 1.55 1.55 0 001.023-.343 2.112 2.112 0 00.627-1.1m.148-2.7a2.617 2.617 0 00-.581-1.763 1.757 1.757 0 00-1.345-.6 1.782 1.782 0 00-1.4.636 2.514 2.514 0 00-.543 1.729zm-3.31-5.417l1.273-2.842h2.9L206.9 17.43zM221.79 21.647l-2.554.477a1.921 1.921 0 00-.586-1.188 1.727 1.727 0 00-1.183-.4 1.914 1.914 0 00-1.545.69 3.624 3.624 0 00-.575 2.305 4.213 4.213 0 00.583 2.538 1.9 1.9 0 001.573.739 1.711 1.711 0 001.208-.432 2.609 2.609 0 00.664-1.486l2.543.446a4.694 4.694 0 01-1.519 2.727 4.611 4.611 0 01-3.016.921 4.413 4.413 0 01-3.424-1.4 6.524 6.524 0 01.005-7.758 4.478 4.478 0 013.467-1.393 4.62 4.62 0 012.843.794 4.426 4.426 0 011.516 2.417M228.242 18.663v2.128h-1.77v4.065a10.362 10.362 0 00.053 1.444.589.589 0 00.229.338.718.718 0 00.438.132 3.253 3.253 0 001.042-.256l.219 2.072a4.988 4.988 0 01-2.043.4 3.15 3.15 0 01-1.263-.24 1.871 1.871 0 01-.826-.628 2.563 2.563 0 01-.365-1.042 13.582 13.582 0 01-.082-1.881v-4.4h-1.189v-2.132h1.189v-2.007l2.6-1.557v3.563zM232.519 28.756h-2.594V18.664h2.4V20.1a4.284 4.284 0 011.114-1.34 1.971 1.971 0 011.117-.323 3.2 3.2 0 011.7.5l-.8 2.326a2.237 2.237 0 00-1.217-.436 1.412 1.412 0 00-.922.309 2.128 2.128 0 00-.6 1.117 16.406 16.406 0 00-.215 3.383zM237.386 14.825h2.591v2.471h-2.591zm0 3.838h2.591v10.093h-2.591zM251.166 21.647l-2.552.477a1.941 1.941 0 00-.586-1.188 1.728 1.728 0 00-1.184-.4 1.912 1.912 0 00-1.544.69 3.618 3.618 0 00-.574 2.305 4.207 4.207 0 00.582 2.538 1.9 1.9 0 001.572.739 1.708 1.708 0 001.209-.432 2.635 2.635 0 00.663-1.486l2.543.446a4.669 4.669 0 01-1.521 2.727 4.6 4.6 0 01-3.013.921 4.411 4.411 0 01-3.425-1.4 6.524 6.524 0 01.005-7.758 4.48 4.48 0 013.467-1.393 4.618 4.618 0 012.843.794 4.4 4.4 0 011.515 2.417M255.067 21.743l-2.351-.437a3.767 3.767 0 011.365-2.167 4.868 4.868 0 012.875-.7 6.029 6.029 0 012.583.424 2.6 2.6 0 011.193 1.073 5.679 5.679 0 01.345 2.388l-.029 3.119a10.966 10.966 0 00.127 1.961 5.832 5.832 0 00.465 1.357h-2.563a10.02 10.02 0 01-.25-.788 6.319 6.319 0 00-.091-.317 4.694 4.694 0 01-1.419 1 4 4 0 01-1.615.33 3.279 3.279 0 01-2.383-.846 2.853 2.853 0 01-.871-2.138 2.934 2.934 0 01.4-1.525 2.632 2.632 0 011.11-1.027 8.613 8.613 0 012.061-.622 13.866 13.866 0 002.516-.655v-.266a1.411 1.411 0 00-.368-1.1 2.156 2.156 0 00-1.392-.326 1.8 1.8 0 00-1.078.28 1.939 1.939 0 00-.627.983m3.465 2.167a15.957 15.957 0 01-1.576.409 4.689 4.689 0 00-1.411.465 1.124 1.124 0 00-.5.943 1.321 1.321 0 00.4.967 1.394 1.394 0 001.033.407 2.213 2.213 0 001.338-.473 1.678 1.678 0 00.616-.885 5.41 5.41 0 00.1-1.3zM280.378 28.756h-2.967l-1.18-3.166h-5.4l-1.118 3.166h-2.888l5.264-13.932h2.884zm-5.021-5.513l-1.864-5.17-1.825 5.17zM281.615 18.663h2.387v1.378a3.806 3.806 0 013.05-1.605 3.191 3.191 0 011.63.4 3.03 3.03 0 011.135 1.207 4.648 4.648 0 011.4-1.207 3.318 3.318 0 011.6-.4 3.455 3.455 0 011.823.453 2.733 2.733 0 011.115 1.324 5.852 5.852 0 01.268 2.092v6.451h-2.598v-5.77a4.428 4.428 0 00-.268-1.938 1.219 1.219 0 00-1.107-.57 1.727 1.727 0 00-1.023.342 1.882 1.882 0 00-.69 1 7.363 7.363 0 00-.213 2.084v4.852h-2.591v-5.531a7.974 7.974 0 00-.137-1.9 1.237 1.237 0 00-.429-.639 1.348 1.348 0 00-.79-.207 1.849 1.849 0 00-1.077.331 1.829 1.829 0 00-.688.961 7.463 7.463 0 00-.2 2.08v4.905h-2.597zM298.484 28.756v-13.93h2.591v5.017a3.618 3.618 0 012.839-1.406 3.764 3.764 0 012.958 1.335 5.644 5.644 0 011.172 3.834 5.952 5.952 0 01-1.2 3.982 3.684 3.684 0 01-2.9 1.4 3.485 3.485 0 01-1.647-.432 3.994 3.994 0 01-1.407-1.278v1.478zm2.573-5.265a4.39 4.39 0 00.479 2.317 2.031 2.031 0 001.788 1.065 1.815 1.815 0 001.461-.755 3.82 3.82 0 00.6-2.382 4.04 4.04 0 00-.608-2.494 1.9 1.9 0 00-1.557-.763 1.921 1.921 0 00-1.548.744 3.485 3.485 0 00-.618 2.268M312.062 21.743l-2.349-.437a3.774 3.774 0 011.362-2.167 4.882 4.882 0 012.877-.7 6.011 6.011 0 012.58.424 2.585 2.585 0 011.194 1.073 5.646 5.646 0 01.345 2.388l-.027 3.119a10.966 10.966 0 00.127 1.961 5.647 5.647 0 00.464 1.357h-2.563a10.558 10.558 0 01-.249-.788c-.045-.161-.073-.266-.093-.317a4.658 4.658 0 01-1.419 1 3.98 3.98 0 01-1.614.33 3.272 3.272 0 01-2.381-.846 2.846 2.846 0 01-.872-2.138 2.916 2.916 0 01.4-1.525 2.638 2.638 0 011.11-1.027 8.607 8.607 0 012.059-.622 13.8 13.8 0 002.512-.657v-.266a1.408 1.408 0 00-.37-1.1 2.159 2.159 0 00-1.391-.326 1.8 1.8 0 00-1.077.28 1.946 1.946 0 00-.628.983m3.466 2.168a15.882 15.882 0 01-1.576.409 4.657 4.657 0 00-1.411.465 1.121 1.121 0 00-.507.943 1.328 1.328 0 00.407.967 1.384 1.384 0 001.03.407 2.211 2.211 0 001.339-.473 1.668 1.668 0 00.616-.885 5.394 5.394 0 00.1-1.3zM325.115 18.663v2.128h-1.769v4.065a10.187 10.187 0 00.051 1.442.588.588 0 00.231.338.711.711 0 00.437.132 3.257 3.257 0 001.039-.256l.223 2.072a5.015 5.015 0 01-2.045.4 3.147 3.147 0 01-1.263-.24 1.841 1.841 0 01-.824-.628 2.464 2.464 0 01-.366-1.042 13.365 13.365 0 01-.083-1.881v-4.4h-1.19v-2.13h1.19v-2.007l2.6-1.557v3.563zM326.313 23.567a5.579 5.579 0 01.638-2.574 4.427 4.427 0 011.8-1.9 5.225 5.225 0 012.6-.655 4.818 4.818 0 013.643 1.487 5.225 5.225 0 011.42 3.759 5.29 5.29 0 01-1.433 3.8 4.772 4.772 0 01-3.611 1.505 5.533 5.533 0 01-2.566-.626 4.235 4.235 0 01-1.857-1.838 6.279 6.279 0 01-.638-2.952m2.655.144a3.414 3.414 0 00.693 2.3 2.215 2.215 0 003.4 0 3.455 3.455 0 00.687-2.317 3.4 3.4 0 00-.687-2.283 2.217 2.217 0 00-3.4 0 3.426 3.426 0 00-.693 2.3M99.935 49.777V35.956h5.7a9.493 9.493 0 013.122.372 3.089 3.089 0 011.557 1.325 4.045 4.045 0 01.586 2.177 3.764 3.764 0 01-.884 2.569 4.214 4.214 0 01-2.652 1.277 6.366 6.366 0 011.447 1.16 15.819 15.819 0 011.544 2.244l1.633 2.7h-3.234l-1.959-3.008a19.321 19.321 0 00-1.426-2.032 2.1 2.1 0 00-.813-.575 4.327 4.327 0 00-1.365-.157h-.547v5.772zm2.707-7.977h2a9.907 9.907 0 002.433-.171 1.479 1.479 0 00.76-.584 1.858 1.858 0 00.273-1.037 1.675 1.675 0 00-.362-1.125 1.628 1.628 0 00-1.018-.544c-.221-.03-.879-.047-1.977-.047h-2.111zM119.058 46.588l2.56.444a4.327 4.327 0 01-1.56 2.211 4.471 4.471 0 01-2.666.76 4.293 4.293 0 01-3.749-1.708 5.869 5.869 0 01-.959-3.45 5.631 5.631 0 011.261-3.9 4.1 4.1 0 013.193-1.411 4.257 4.257 0 013.42 1.477 6.689 6.689 0 011.2 4.521h-6.439a2.743 2.743 0 00.62 1.834 1.925 1.925 0 001.485.655 1.533 1.533 0 001.013-.34 2.109 2.109 0 00.623-1.1m.147-2.677a2.61 2.61 0 00-.578-1.748 1.815 1.815 0 00-2.724.033 2.5 2.5 0 00-.541 1.715zM123.613 50.437l2.936.367a1.037 1.037 0 00.338.726 1.887 1.887 0 001.152.282 2.92 2.92 0 001.509-.311 1.278 1.278 0 00.512-.668 4.153 4.153 0 00.12-1.218v-1.459a3.458 3.458 0 01-2.909 1.622 3.555 3.555 0 01-3.1-1.707 5.926 5.926 0 01-.9-3.356 5.639 5.639 0 011.175-3.848 3.743 3.743 0 012.923-1.328 3.532 3.532 0 012.972 1.629v-1.4h2.4v8.986a9.2 9.2 0 01-.284 2.649 3.278 3.278 0 01-.8 1.378 3.5 3.5 0 01-1.366.782 6.959 6.959 0 01-2.163.282 5.463 5.463 0 01-3.5-.872 2.767 2.767 0 01-1.033-2.211c0-.088 0-.195.009-.319m2.303-5.887a3.69 3.69 0 00.6 2.334 1.829 1.829 0 001.475.74 2.024 2.024 0 001.6-.758 3.394 3.394 0 00.649-2.249 3.59 3.59 0 00-.623-2.31 1.954 1.954 0 00-1.572-.754 1.876 1.876 0 00-1.524.74 3.542 3.542 0 00-.6 2.257M135.293 35.956h2.567v2.452h-2.567zm0 3.808h2.567v10.012h-2.567zM139.901 44.628a5.583 5.583 0 01.629-2.556 4.409 4.409 0 011.79-1.885 5.168 5.168 0 012.583-.65 4.779 4.779 0 013.612 1.475 5.192 5.192 0 011.409 3.73 5.254 5.254 0 01-1.422 3.766 4.743 4.743 0 01-3.58 1.494 5.5 5.5 0 01-2.547-.622 4.216 4.216 0 01-1.845-1.824 6.276 6.276 0 01-.629-2.929m2.633.141a3.4 3.4 0 00.685 2.282 2.2 2.2 0 003.382 0 3.435 3.435 0 00.681-2.3 3.373 3.373 0 00-.681-2.263 2.2 2.2 0 00-3.382 0 3.394 3.394 0 00-.685 2.282M160.77 49.776h-2.571v-5.11a8.1 8.1 0 00-.164-2.1 1.463 1.463 0 00-.533-.738 1.49 1.49 0 00-.893-.265 2.01 2.01 0 00-1.2.377 1.892 1.892 0 00-.726 1 8.979 8.979 0 00-.2 2.3v4.537h-2.571V39.762h2.388v1.471a3.853 3.853 0 013.2-1.7 3.781 3.781 0 011.557.315 2.615 2.615 0 011.063.807 2.94 2.94 0 01.5 1.112 8.489 8.489 0 01.142 1.782zM165.297 42.818l-2.33-.434a3.754 3.754 0 011.354-2.15 4.828 4.828 0 012.851-.7 5.976 5.976 0 012.564.421 2.584 2.584 0 011.183 1.063 5.634 5.634 0 01.342 2.37l-.026 3.1a10.993 10.993 0 00.123 1.946 5.913 5.913 0 00.46 1.345h-2.539a9.319 9.319 0 01-.249-.783 5.163 5.163 0 00-.091-.311 4.658 4.658 0 01-1.41.99 3.924 3.924 0 01-1.6.33 3.255 3.255 0 01-2.366-.84 2.84 2.84 0 01-.862-2.121 2.9 2.9 0 01.394-1.513 2.617 2.617 0 011.1-1.02 8.5 8.5 0 012.044-.616 13.554 13.554 0 002.5-.652v-.263a1.4 1.4 0 00-.366-1.089 2.142 2.142 0 00-1.382-.325 1.79 1.79 0 00-1.069.278 1.959 1.959 0 00-.624.976m3.441 2.149a15.314 15.314 0 01-1.566.407 4.63 4.63 0 00-1.4.461 1.115 1.115 0 00-.5.934 1.318 1.318 0 00.4.961 1.378 1.378 0 001.024.406 2.205 2.205 0 001.327-.471 1.654 1.654 0 00.61-.878 5.252 5.252 0 00.1-1.291zM173.795 35.954h2.569v13.822h-2.569zM192.799 44.694l2.626.862a6.1 6.1 0 01-2.008 3.362 5.6 5.6 0 01-3.561 1.1 5.682 5.682 0 01-4.39-1.881 7.332 7.332 0 01-1.72-5.142 7.718 7.718 0 011.728-5.362 5.848 5.848 0 014.545-1.909 5.1 5.1 0 015.368 4.044l-2.678.662a2.953 2.953 0 00-.992-1.7 2.791 2.791 0 00-1.834-.621 3.009 3.009 0 00-2.418 1.1 5.52 5.52 0 00-.929 3.572 5.941 5.941 0 00.913 3.734 2.933 2.933 0 002.379 1.113 2.67 2.67 0 001.858-.707 4.151 4.151 0 001.115-2.225M203.353 46.588l2.559.444a4.326 4.326 0 01-1.559 2.211 4.474 4.474 0 01-2.665.76 4.3 4.3 0 01-3.751-1.708 5.869 5.869 0 01-.96-3.45 5.641 5.641 0 011.262-3.9 4.1 4.1 0 013.191-1.411 4.251 4.251 0 013.421 1.477 6.662 6.662 0 011.2 4.521h-6.438a2.723 2.723 0 00.623 1.834 1.912 1.912 0 001.481.655 1.537 1.537 0 001.015-.34 2.129 2.129 0 00.622-1.1m.147-2.677a2.61 2.61 0 00-.578-1.748 1.744 1.744 0 00-1.336-.6 1.763 1.763 0 00-1.389.632 2.492 2.492 0 00-.541 1.715zM216.98 49.776h-2.571v-5.11a8.084 8.084 0 00-.165-2.1 1.454 1.454 0 00-.534-.738 1.486 1.486 0 00-.891-.265 2.016 2.016 0 00-1.2.377 1.891 1.891 0 00-.725 1 8.861 8.861 0 00-.2 2.3v4.537h-2.569V39.762h2.388v1.471a3.852 3.852 0 013.2-1.7 3.769 3.769 0 011.556.315 2.615 2.615 0 011.065.807 2.973 2.973 0 01.5 1.112 8.556 8.556 0 01.142 1.782zM224.038 39.762v2.112h-1.752v4.035a10.84 10.84 0 00.048 1.429.591.591 0 00.229.336.711.711 0 00.433.13 3.256 3.256 0 001.035-.252l.219 2.054a5 5 0 01-2.032.4 3.157 3.157 0 01-1.251-.24 1.849 1.849 0 01-.82-.623 2.5 2.5 0 01-.358-1.033 12.643 12.643 0 01-.084-1.866v-4.366h-1.18v-2.112h1.18v-1.989l2.581-1.547v3.536zM228.283 49.776h-2.569V39.762h2.387v1.426a4.21 4.21 0 011.1-1.331 1.979 1.979 0 011.113-.32 3.177 3.177 0 011.689.5l-.8 2.308a2.2 2.2 0 00-1.207-.433 1.4 1.4 0 00-.914.307 2.1 2.1 0 00-.587 1.108 15.847 15.847 0 00-.218 3.355zM232.519 44.628a5.547 5.547 0 01.63-2.556 4.4 4.4 0 011.788-1.885 5.176 5.176 0 012.583-.65 4.782 4.782 0 013.614 1.475 5.673 5.673 0 01-.015 7.5 4.741 4.741 0 01-3.581 1.494 5.5 5.5 0 01-2.546-.622 4.206 4.206 0 01-1.843-1.828 6.239 6.239 0 01-.63-2.929m2.633.141a3.385 3.385 0 00.686 2.282 2.2 2.2 0 003.379 0 3.43 3.43 0 00.682-2.3 3.367 3.367 0 00-.682-2.263 2.2 2.2 0 00-3.379 0 3.383 3.383 0 00-.686 2.282M249.805 49.776v-13.82h2.633l5.486 9.23v-9.23h2.516v13.82h-2.715l-5.407-9.014v9.014zM262.69 44.628a5.525 5.525 0 01.632-2.556 4.408 4.408 0 011.787-1.885 5.181 5.181 0 012.583-.65 4.781 4.781 0 013.613 1.475 5.192 5.192 0 011.409 3.73 5.246 5.246 0 01-1.422 3.766 4.743 4.743 0 01-3.582 1.494 5.494 5.494 0 01-2.546-.622 4.2 4.2 0 01-1.839-1.824 6.215 6.215 0 01-.632-2.929m2.633.141a3.385 3.385 0 00.687 2.282 2.2 2.2 0 003.38 0 3.441 3.441 0 00.68-2.3 3.378 3.378 0 00-.68-2.263 2.2 2.2 0 00-3.38 0 3.384 3.384 0 00-.687 2.282M277.184 49.776h-2.569V39.762h2.388v1.426a4.2 4.2 0 011.1-1.331 1.971 1.971 0 011.112-.32 3.189 3.189 0 011.692.5l-.8 2.308a2.2 2.2 0 00-1.206-.433 1.4 1.4 0 00-.914.307 2.1 2.1 0 00-.59 1.108 16.039 16.039 0 00-.216 3.355zM286.468 39.762v2.112h-1.756v4.035a10.379 10.379 0 00.051 1.429.588.588 0 00.227.336.72.72 0 00.436.13 3.275 3.275 0 001.034-.252l.218 2.054a4.992 4.992 0 01-2.03.4 3.17 3.17 0 01-1.255-.24 1.83 1.83 0 01-.816-.623 2.511 2.511 0 01-.363-1.033 13.584 13.584 0 01-.081-1.866v-4.366h-1.181v-2.112h1.181v-1.989l2.579-1.547v3.536zM293.875 46.588l2.561.444a4.336 4.336 0 01-1.558 2.211 4.487 4.487 0 01-2.667.76 4.3 4.3 0 01-3.751-1.708 5.861 5.861 0 01-.958-3.45 5.641 5.641 0 011.26-3.9 4.1 4.1 0 013.193-1.411 4.255 4.255 0 013.421 1.477 6.673 6.673 0 011.2 4.521h-6.437a2.733 2.733 0 00.621 1.834 1.916 1.916 0 001.482.655 1.534 1.534 0 001.014-.34 2.115 2.115 0 00.622-1.1m.148-2.677a2.61 2.61 0 00-.578-1.748 1.741 1.741 0 00-1.336-.6 1.765 1.765 0 00-1.39.632 2.507 2.507 0 00-.54 1.715zM303.204 45.278l2.636-.264a3.333 3.333 0 00.964 2.008 2.858 2.858 0 001.961.643 2.967 2.967 0 001.972-.57 1.722 1.722 0 00.663-1.334 1.29 1.29 0 00-.279-.835 2.231 2.231 0 00-.973-.6q-.479-.169-2.17-.6a7.206 7.206 0 01-3.053-1.37 3.711 3.711 0 01-.657-4.756 3.679 3.679 0 011.673-1.4 6.533 6.533 0 012.64-.481 5.539 5.539 0 013.8 1.142 4.082 4.082 0 011.339 3.045l-2.708.123a2.391 2.391 0 00-.744-1.534 2.675 2.675 0 00-1.714-.466 3.024 3.024 0 00-1.848.5 1.015 1.015 0 00-.43.857 1.063 1.063 0 00.4.839 6.98 6.98 0 002.486.925 12.875 12.875 0 012.921.995 3.824 3.824 0 011.484 1.4 4.223 4.223 0 01.534 2.2 4.149 4.149 0 01-.642 2.224 3.841 3.841 0 01-1.811 1.542 7.39 7.39 0 01-2.915.5 5.7 5.7 0 01-3.907-1.212 5.325 5.325 0 01-1.628-3.531M316.365 47.125h2.569v2.651h-2.569zM333.676 49.776h-2.945l-1.169-3.14h-5.36l-1.106 3.14h-2.871l5.221-13.822h2.863zm-4.983-5.469l-1.849-5.128-1.81 5.128zM335.095 47.125h2.569v2.651h-2.569zM16.205 33.749l13.237-4.858 3.229-7.807c4.06-9.55 12.091-9.355 12.811-9.315 6.134-.441 9.778 4.058 11.495 7.019l4.182-1.535-.769-1.847-8.893-11.265C48.184-.53 45.256.02 45.256.02a8.1 8.1 0 00-6.348 3.482l-27.84 36.159 7.357-3.038zM60.649 14.628l9.923-2.722 2.371 5.289-5.578 1.361 1.223 1.767-3.4 1.16.351.445 3.894-1.328-1.183-1.71 5.446-1.33-2.821-6.293-10.956 3.005.471 1.132 1.23 1.56zM59.142 23.546l.209.494 6.188-2.111-.351-.445z"/><path d="M58.933 23.056l.209.494 6.045-2.062-.351-.445zM62.391 17.941l-.77-.975.248.6-4.626 1.7c.091.167.174.326.251.478zM21.852 35.699l-.66.225 1.774 2.642-12.407 2.464 9.574-3.953-2.184-2.827 10.937-4.014.278-.672-12.087 4.435 2.2 2.851-8.865 3.66-.994 1.291 14.439-2.867-1.832-2.73 5.111-1.743.272-.658z"/><path d="M10.414 40.51l.654-.848-5.962 2.461.312 1.018 3.507-.7.5-.644zM33.825 42.082l-.231.535h.586l.231-.535z"/><path d="M90.09 53.03l-24.551-31.1-6.188 2.111-.509.174-.51.174 7.482 17.694h-9.27l-1.868-4.7q-.2.228-.4.448c-.134.143-.272.283-.412.419l1.524 3.832.212.535h-22l.231-.535h-8.68l3.07-7.425.272-.658.273-.658 1.492-3.609.278-.672-.686.252-.278.672-.686.252-1.475 3.567-.273.658-5.113 1.744 1.832 2.729-14.439 2.867-.495.644L.757 53.05c-1.4 2.2-.437 3.491-.437 3.491.525 1.655 2.975 2.115 2.975 2.115h84a3.462 3.462 0 003.388-2.348 3.7 3.7 0 00-.592-3.278m-16.609-2.946H15.947v-5.642h57.534z"/><path d="M19.279 36.85l-2.2-2.851 12.087-4.435.278-.672-13.239 4.857 2.22 2.874-7.358 3.033-.653.849zM61.869 17.563l-.248-.6-1.231-1.559.768 1.846-4.181 1.535c.094.162.183.32.266.472z"/><path d="M62.58 17.871l-1.2-2.889 8.89-2.439 1.921 4.285-5.709 1.393 1.263 1.826-2.907.991.351.445 3.4-1.16-1.224-1.767 5.578-1.361-2.371-5.289-9.923 2.722.972 2.338.77.974zM57.672 21.447l.752 1.778.509-.173-.753-1.781a14.5 14.5 0 00-.686-1.533l-.5.183a14.144 14.144 0 01.677 1.526M28.886 30.236l.686-.252.278-.672.686-.252.278-.672-.686.251-.686.252-.278.672zM58.633 23.72l-.51.174.209.494.51-.174.509-.173-.209-.494-.209-.494-.509.173z"/><path d="M30.814 28.388l2.851-6.893c3.914-9.205 11.455-8.683 11.774-8.657h.086c5.477-.4 8.8 3.579 10.429 6.324l.524-.193.5-.183c-1.717-2.96-5.361-7.459-11.495-7.018-.719-.04-8.751-.235-12.811 9.315l-3.229 7.807.686-.251zM55.954 19.163c.1.161.186.319.27.471s.177.325.255.476a14.273 14.273 0 01.7 1.544l.738 1.746.51-.175-.752-1.778a14.144 14.144 0 00-.677-1.526l.5-.183a16.475 16.475 0 00-.517-.95l-.5.183z"/><path d="M58.633 23.72l-.209-.494-.51.174.209.494zM33.684 32.794a13.132 13.132 0 001.975 3.685l.248-.574a12.64 12.64 0 01-1.712-3.285zM45.194 15.898a11.385 11.385 0 018.633 4.045l.542-.2a11.935 11.935 0 00-9.175-4.382c-6.533 0-11.872 5.415-12.233 12.237l.551-.2c.454-6.422 5.52-11.5 11.682-11.5M32.947 28.746a13.691 13.691 0 00.428 3.022l.512-.174a13.127 13.127 0 01-.406-3.044z"/><path d="M57.5 24.671c-.046-.173-.1-.344-.148-.514s-.109-.341-.168-.509a13.743 13.743 0 00-1.62-3.2c-.1-.153-.212-.3-.321-.452s-.228-.3-.346-.443a12.492 12.492 0 00-9.7-4.722c-6.883 0-12.513 5.771-12.781 12.972-.006.178-.011.357-.011.537v.037c0 .189.005.378.013.566a14.1 14.1 0 00.45 3 14.557 14.557 0 00.311 1.025 13.731 13.731 0 002.242 4.068l-2.178 5.046h.586l1.979-4.585c.129.148.262.293.4.434l.229-.53.236-.547q-.2-.223-.387-.458l2.271-5.261.683-.234.286-.662.287-.663-.684.233 1.707-3.955-.7.255-1.7 3.934-.286.663-.286.663-1.958 4.537-.248.575a13.151 13.151 0 01-1.975-3.686l.511-.174q-.087-.252-.164-.509t-.143-.517l-.513.174a13.691 13.691 0 01-.428-3.022l.534-.2v-.212-.36c0-.194.014-.388.028-.58l-.551.2c.361-6.821 5.7-12.237 12.233-12.237a11.932 11.932 0 019.174 4.382l-.541.2q.185.213.36.438t.335.446a12.684 12.684 0 011.644 3.168c.059.167.115.337.167.508s.1.342.146.516l.512-.175a13.689 13.689 0 01.45 3.493 13.361 13.361 0 01-2.988 8.486l-.231-.58q-.189.243-.389.475t-.4.444l.219.552.213.535a12.563 12.563 0 00.812-.866 13.876 13.876 0 003.3-9.046 14.179 14.179 0 00-.479-3.667"/><path d="M41.815 24.922l.292-.678-.692.253.381-.88a3.694 3.694 0 013.672-2.46 3.261 3.261 0 012.26 1.024l-.562.207a3.084 3.084 0 01.4.424 3.652 3.652 0 01.3.459l.511-.188c.074.14.146.291.212.452l1.066 2.681-.509.174.2.5.2.5.509-.173.509-.174-.2-.5-.2-.5-1.077-2.709q-.1-.231-.2-.436a5.053 5.053 0 00-.272-.47 4.374 4.374 0 00-.339-.446 3.79 3.79 0 00-2.8-1.359h-.063a4.213 4.213 0 00-4.11 2.785l-.581 1.347-.293.678.7-.255-.292.677.692-.254zM54.225 36.244l.23.58a13.369 13.369 0 002.988-8.486 13.7 13.7 0 00-.45-3.494l-.512.175a13.126 13.126 0 01.424 3.319 12.848 12.848 0 01-2.68 7.906"/><path d="M50.052 27.211l-.509.174 3.888 9.778q.206-.218.4-.444t.39-.475l-3.662-9.207zM40.425 25.431l-.292.677.7-.255.293-.678zM36.203 37.93a18.514 18.514 0 01-.4-.434l-1.979 4.586h.585zM38.552 31.134l-2.271 5.261c.126.156.254.309.387.458l2.567-5.953zM45.468 21.156a3.694 3.694 0 00-3.672 2.46l-.38.88.691-.253.205-.475a3.178 3.178 0 013.123-2.078h.051a2.7 2.7 0 011.68.7l.562-.207a3.263 3.263 0 00-2.26-1.024M40.831 25.856l-1.706 3.952.684-.233 1.716-3.976zM48.59 23.535a4.625 4.625 0 00-.213-.452l-.51.188a3.958 3.958 0 01.222.461l1.057 2.658.51-.174zM48.615 27.137a3.723 3.723 0 00-.191-.5 3.586 3.586 0 00-3.23-2.112 3.675 3.675 0 00-3.594 3.744 3.878 3.878 0 00.189 1.2 3.84 3.84 0 00.2.5 3.586 3.586 0 003.2 2.048 3.672 3.672 0 003.589-3.741 3.938 3.938 0 00-.048-.608 3.782 3.782 0 00-.12-.523m-3.421 3.8a2.5 2.5 0 01-2.176-1.329 2.8 2.8 0 01-.324-1.021 3.11 3.11 0 01-.019-.322 2.6 2.6 0 012.519-2.675 2.5 2.5 0 012.205 1.393 2.8 2.8 0 01.3 1.03c.008.082.012.167.012.252a2.6 2.6 0 01-2.513 2.672M11.495 72.246h7.324v-2.39h-7.324v-3.149h7.87v-2.4H8.549v14.2h11.095v-2.393h-8.149zM26.554 72.246h7.324v-2.39h-7.324v-3.149h7.871v-2.4H23.61v14.2h11.093v-2.393h-8.149zM42.869 64.302l-5.684 14.2h3.126l1.2-3.228h5.831l1.274 3.228h3.2l-5.841-14.2zm-.447 8.584l1.967-5.272 2.012 5.272zM63.773 70.656a14.451 14.451 0 00-3.179-1.021 7.893 7.893 0 01-2.706-.95 1.08 1.08 0 01-.439-.862 1.029 1.029 0 01.469-.882 3.431 3.431 0 012.008-.513 3.03 3.03 0 011.867.48 2.414 2.414 0 01.811 1.573l2.945-.126a4.087 4.087 0 00-1.458-3.129 6.269 6.269 0 00-4.133-1.173 7.454 7.454 0 00-2.871.495 3.933 3.933 0 00-1.822 1.44 3.576 3.576 0 00-.631 2.029 3.654 3.654 0 001.343 2.858 8.108 8.108 0 003.323 1.4q1.842.447 2.359.621a2.427 2.427 0 011.059.614 1.272 1.272 0 01.3.858 1.726 1.726 0 01-.722 1.371 3.341 3.341 0 01-2.144.587 3.239 3.239 0 01-2.135-.658 3.394 3.394 0 01-1.05-2.065l-2.865.272a5.366 5.366 0 001.77 3.628 6.444 6.444 0 004.253 1.253 8.472 8.472 0 003.174-.518 4.149 4.149 0 001.97-1.584 4.1 4.1 0 00.7-2.287 4.142 4.142 0 00-.581-2.262 4.07 4.07 0 00-1.613-1.445M74.111 64.302l-5.681 14.2h3.125l1.2-3.228h5.831l1.274 3.228h3.2l-5.839-14.2zm-.448 8.584l1.969-5.272 2.012 5.272z"/></g></svg>